<?xml version="1.0" encoding="UTF-8" standalone="no"?>
<!-- Created with Inkscape (http://www.inkscape.org/) -->

<svg
   id="svg1306"
   sodipodi:docname="sun-moon.svg"
   viewBox="0 0 48 48"
   sodipodi:version="0.32"
   version="1.1"
   inkscape:output_extension="org.inkscape.output.svg.inkscape"
   inkscape:version="1.1.1 (3bf5ae0d25, 2021-09-20)"
   width="51.200001"
   height="51.200001"
   inkscape:export-filename="/home/konthank/Documents/Graduate_Committees/09_Jesse_Humbert/octo_data_analysis/moon.png"
   inkscape:export-xdpi="91"
   inkscape:export-ydpi="91"
   xmlns:inkscape="http://www.inkscape.org/namespaces/inkscape"
   xmlns:sodipodi="http://sodipodi.sourceforge.net/DTD/sodipodi-0.dtd"
   xmlns="http://www.w3.org/2000/svg"
   xmlns:svg="http://www.w3.org/2000/svg"
   xmlns:rdf="http://www.w3.org/1999/02/22-rdf-syntax-ns#"
   xmlns:cc="http://creativecommons.org/ns#"
   xmlns:dc="http://purl.org/dc/elements/1.1/">
  <defs
     id="defs10" />
  <sodipodi:namedview
     id="base"
     bordercolor="#666666"
     inkscape:pageshadow="2"
     inkscape:window-y="27"
     pagecolor="#ffffff"
     inkscape:window-height="1016"
     inkscape:grid-bbox="true"
     inkscape:window-maximized="1"
     inkscape:zoom="5.270675"
     inkscape:window-x="0"
     showgrid="true"
     borderopacity="1.0"
     inkscape:current-layer="g3936"
     inkscape:cx="-26.467198"
     inkscape:cy="49.044952"
     inkscape:showpageshadow="false"
     inkscape:window-width="1920"
     inkscape:pageopacity="0.0"
     inkscape:document-units="px"
     inkscape:pagecheckerboard="0" />
  <g
     id="layer1"
     inkscape:label="Layer 1"
     inkscape:groupmode="layer">
    <g
       id="g3936">
      <path
         id="path7492"
         style="fill:none;stroke:#000000;stroke-width:0.9375;stroke-linecap:square;stroke-miterlimit:4;stroke-dasharray:none"
         d="m -31.508889,2.1409853 -2.375,6.6875 c 0.774,-0.1234 1.566,-0.1875 2.375,-0.1875 0.80859,0 1.601,0.06413 2.375,0.1875 z m -15.188,6.2812 3.0312,6.4374997 c 0.93528,-1.2902 2.0848,-2.4397 3.375,-3.375 l -6.4055,-3.0627997 z m 30.406,0 -6.4375,3.0624997 c 1.2902,0.93528 2.4397,2.0848 3.375,3.375 z m -30.03,12.8129997 -6.6875,2.375 6.6875,2.375 c -0.1202,-0.764 -0.1875,-1.546 -0.1875,-2.344 0,-0.819 0.0609,-1.622 0.1875,-2.406 z m 29.624,0.031 c 0.124,0.774 0.188,1.566 0.188,2.375 0,0.80859 -0.06413,1.601 -0.1875,2.375 l 6.688,-2.375 -6.688,-2.375 z m -26.968,11.156 -3.0315,6.407 6.4065,-3.032 c -1.2902,-0.93528 -2.4397,-2.0848 -3.375,-3.375 z m 24.312,0 c -0.92646,1.278 -2.0686,2.4135 -3.3438,3.3438 l 6.4062,3.0625 -3.0625,-6.4062 z m -14.531,6.031 2.375,6.688 2.375,-6.688 c -0.774,0.124 -1.566,0.188 -2.375,0.188 -0.809,0 -1.601,-0.064 -2.375,-0.188 z" />
      <circle
         id="path7498"
         style="fill:none;stroke:#000000;stroke-width:0.9375;stroke-linecap:square;stroke-miterlimit:4;stroke-dasharray:none;stroke-dashoffset:0"
         inkscape:r_cy="true"
         transform="rotate(-53.754121)"
         inkscape:r_cx="true"
         cx="-37.679714"
         cy="-11.433991"
         rx="12.501562"
         ry="12.501563" />
      <path
         id="path972"
         inkscape:connector-curvature="0"
         sodipodi:nodetypes="ccc"
         style="fill:#f3f3f3;fill-opacity:0;fill-rule:evenodd;stroke:#000000;stroke-width:0.9375;stroke-miterlimit:4;stroke-dasharray:none"
         d="M 10.768212,4.3536404 C 43.957812,-1.8572595 49.005609,46.471498 13.097241,43.366283 20.860984,40.648926 33.671112,17.746026 10.768212,4.3536404 Z" />
    </g>
  </g>
  <metadata
     id="metadata7">
    <rdf:RDF>
      <cc:Work>
        <dc:format>image/svg+xml</dc:format>
        <dc:type
           rdf:resource="http://purl.org/dc/dcmitype/StillImage" />
        <cc:license
           rdf:resource="http://creativecommons.org/publicdomain/zero/1.0/" />
        <dc:publisher>
          <cc:Agent
             rdf:about="http://openclipart.org/">
            <dc:title>Openclipart</dc:title>
          </cc:Agent>
        </dc:publisher>
        <dc:date>2010-07-01T01:38:37</dc:date>
        <dc:description />
        <dc:source>https://openclipart.org/detail/69433/sun-outline-by-horse50-69433</dc:source>
        <dc:creator>
          <cc:Agent>
            <dc:title>horse50</dc:title>
          </cc:Agent>
        </dc:creator>
        <dc:subject>
          <rdf:Bag>
            <rdf:li>clear</rdf:li>
            <rdf:li>icon</rdf:li>
            <rdf:li>outline</rdf:li>
            <rdf:li>sky</rdf:li>
            <rdf:li>sun</rdf:li>
            <rdf:li>sunny</rdf:li>
            <rdf:li>weather</rdf:li>
          </rdf:Bag>
        </dc:subject>
      </cc:Work>
      <cc:License
         rdf:about="http://creativecommons.org/publicdomain/zero/1.0/">
        <cc:permits
           rdf:resource="http://creativecommons.org/ns#Reproduction" />
        <cc:permits
           rdf:resource="http://creativecommons.org/ns#Distribution" />
        <cc:permits
           rdf:resource="http://creativecommons.org/ns#DerivativeWorks" />
      </cc:License>
    </rdf:RDF>
  </metadata>
</svg>
